<svg width="25" height="25" viewBox="0 0 25 25" fill="none" xmlns="http://www.w3.org/2000/svg">
<path d="M18.0555 25H6.94444C6.20773 25 5.50119 24.7073 4.98025 24.1864C4.45932 23.6655 4.16666 22.9589 4.16666 22.2222V9.72222C4.16666 9.35387 4.31299 9.0006 4.57346 8.74013C4.83392 8.47966 5.18719 8.33333 5.55555 8.33333H19.4444C19.8128 8.33333 20.1661 8.47966 20.4265 8.74013C20.687 9.0006 20.8333 9.35387 20.8333 9.72222V22.2222C20.8333 22.9589 20.5407 23.6655 20.0197 24.1864C19.4988 24.7073 18.7923 25 18.0555 25ZM22.2222 4.16667C22.2222 4.53502 22.0759 4.88829 21.8154 5.14876C21.555 5.40923 21.2017 5.55556 20.8333 5.55556H4.16666C3.7983 5.55556 3.44503 5.40923 3.18457 5.14876C2.9241 4.88829 2.77777 4.53502 2.77777 4.16667C2.77777 3.79831 2.9241 3.44504 3.18457 3.18457C3.44503 2.92411 3.7983 2.77778 4.16666 2.77778H8.33333V1.38889C8.33333 1.02053 8.47966 0.667263 8.74012 0.406796C9.00059 0.146329 9.35386 0 9.72222 0L15.2778 0C15.6461 0 15.9994 0.146329 16.2599 0.406796C16.5203 0.667263 16.6667 1.02053 16.6667 1.38889V2.77778H20.8333C21.2017 2.77778 21.555 2.92411 21.8154 3.18457C22.0759 3.44504 22.2222 3.79831 22.2222 4.16667Z" fill="#EE0000"/>
</svg>
