<svg width="20" height="20" viewBox="0 0 24 24" fill="none" xmlns="http://www.w3.org/2000/svg">
<path d="M2.09772 17.9421L16.9554 3.08397L20.916 7.04456L6.05791 21.9023L2.09772 17.9421Z" fill="#9175EE"/>
<path d="M22.6141 5.34694L23.1798 4.7812C23.7087 4.25226 24 3.54929 24 2.8011C24 2.05291 23.7087 1.34994 23.1798 0.821005C22.6509 0.292073 21.9475 0 21.1993 0C20.4511 0 19.7481 0.291673 19.2188 0.820605L18.6531 1.38635L22.6141 5.34694Z" fill="#9175EE"/>
<path d="M1.64001 18.6154L0.0204067 23.4735C-0.0276053 23.6171 0.0100041 23.7759 0.117231 23.8828C0.19325 23.9588 0.295676 24 0.400102 24C0.442512 24 0.484923 23.9932 0.526533 23.9792L5.38415 22.36L1.64001 18.6154Z" fill="#9175EE"/>
<path d="M17.5216 2.51823L18.0877 1.95209L22.0483 5.91268L21.4822 6.47882L17.5216 2.51823Z" fill="#9175EE"/>
</svg>
